<svg id="svg" version="1.1" viewBox="0 0 300 300" width="300" height="300" xmlns="http://www.w3.org/2000/svg"><svg xmlns="http://www.w3.org/2000/svg"><defs><clipPath id="clip-1"><rect x="0" y="0" transform="scale(0.14648,0.14648)" width="2048" height="2048" fill="none"/></clipPath><linearGradient x1="174.08936" y1="164.88574" x2="150.06445" y2="124.61777" gradientUnits="userSpaceOnUse" id="color-1"><stop offset="0" stop-color="#4036a2"/><stop offset="1" stop-color="#2f88d0"/></linearGradient><linearGradient x1="155.93408" y1="123.91025" x2="135.19146" y2="88.20469" gradientUnits="userSpaceOnUse" id="color-2"><stop offset="0" stop-color="#3184cd"/><stop offset="1" stop-color="#21caf6"/></linearGradient><linearGradient x1="138.21064" y1="136.80703" x2="121.22417" y2="110.87505" gradientUnits="userSpaceOnUse" id="color-3"><stop offset="0" stop-color="#3282cb"/><stop offset="1" stop-color="#27b6e9"/></linearGradient></defs><g clip-path="url(#clip-1)" fill="none" fill-rule="nonzero" stroke="none" stroke-width="1" stroke-linecap="butt" stroke-linejoin="miter" stroke-miterlimit="10" stroke-dasharray="" stroke-dashoffset="0" font-family="none" font-weight="none" font-size="none" text-anchor="none" style="mix-blend-mode: normal"><path d="M181.34766,107.85879c0.19482,0.70034 0.35596,1.24233 0.30469,1.97915c0.52588,2.75405 -0.68262,7.65732 -0.29443,9.09785c1.13525,4.22432 8.61475,7.24731 10.74756,11.09194c-1.57178,2.59131 -2.20312,2.6313 -4.74609,4.14258c1.81348,2.50562 3.93896,3.54492 0.36621,6.03911c3.29736,4.93975 -1.07666,3.45996 -2.10352,6.1188c-0.77783,2.01357 3.44531,7.6708 -0.70752,9.69229c-3.90674,1.67578 -9.9126,0.16699 -14.65869,1.40771c-1.88965,3.46875 -0.19336,6.55371 0.37354,10.22168c-8.68799,-0.31641 -17.95605,0.12305 -26.6877,-0.04687c-3.05903,-0.06006 -6.68789,0.12451 -9.68936,-0.04248c0.60688,-1.98193 2.55776,-5.63379 3.47168,-7.69922c1.6916,-3.82178 2.14453,-5.77734 3.1207,-9.70166l2.67642,-0.01025c-0.79863,3.44971 -1.57002,6.479 -2.90728,9.7793c-0.69624,1.71826 -1.51509,3.29443 -2.25146,4.98047c5.99282,-2.13574 12.50771,-6.20361 16.37637,-11.25879c1.3125,-1.71387 1.83691,-2.80664 2.91943,-4.52344c-7.40771,0.03076 -14.80474,-0.05273 -22.20747,0.04395c-0.56353,1.25391 -0.98423,1.91162 -1.78374,3.04834c-3.00073,1.19824 -6.59458,1.02246 -8.06118,-2.49902c-1.16265,-2.79346 0.73564,-6.23481 3.57993,-6.97837c2.9978,-0.92197 5.1728,1.24365 6.323,3.77769c1.52446,-0.01025 3.42876,-0.07866 4.90503,0.14355c-1.40742,-3.19307 -5.15845,-5.38784 -7.46836,-7.89155c-0.26675,-0.28916 -0.27598,-0.42686 -0.15249,-0.75835c0.69727,-0.12993 2.45405,-0.02563 3.19893,0.05024c2.53843,1.95864 5.98242,5.42065 7.24878,8.41113c5.05576,0.11382 10.1124,0.15337 15.16904,0.11968c0.30029,-1.34004 0.54492,-1.96494 0.73828,-3.36284c0.28711,-2.0666 0.26807,-4.26812 0.5083,-6.29487c-1.48535,-0.0022 -2.96924,0.01934 -4.45166,0.06445c-2.19727,4.83647 -8.5708,5.14277 -9.97866,0.07031c-0.40269,-1.39819 -0.21797,-2.9001 0.51152,-4.15913c1.3812,-2.35386 4.69614,-3.14531 7.02524,-1.68428c1.11475,0.70034 1.80908,1.85039 2.48291,2.94873c1.64795,-0.04585 2.71875,-0.07266 4.3667,0.03926c0.1582,-2.46387 0.71045,-5.09561 1.7168,-7.35894c-1.69775,0.00952 -3.39551,0.0022 -5.09326,-0.02212c-0.77783,-0.61216 -1.17041,-0.21797 -1.78857,-0.35083c-0.4043,-0.08716 -2.04199,-1.59653 -2.50635,-1.77085c-0.39551,-0.1481 -0.37646,0.22324 -1.08691,-0.30791l0.0542,-0.14883c0.40283,-0.01289 0.45264,-0.04512 0.77637,-0.28315c3.12891,-0.17197 7.85303,-0.00366 11.05518,0.03545c1.5498,-1.60005 3.93311,-5.42007 5.54297,-7.33843l0.13477,0.09316l0.1084,-0.15601c1.12939,-0.45879 1.77393,-1.15854 2.71289,-1.69687c1.93652,-1.10918 4.51172,-2.92456 6.60059,-3.55767c0.646,-1.75312 1.03857,-0.91875 2.17822,-2.01958c0.46436,-0.44824 -0.13037,-0.33149 0.35303,-1.0002l0.99316,-0.07515zM130.73364,150.27246c0.53511,-0.06885 1.03315,-0.31055 1.41782,-0.68994c0.9356,-0.91992 0.98921,-2.40967 0.12202,-3.39478c-0.55386,-0.62871 -1.38867,-0.93413 -2.21748,-0.81108c-1.34062,0.19907 -2.27065,1.44023 -2.08491,2.7835c0.18589,1.3418 1.41826,2.28516 2.76255,2.1123zM149.09473,137.83872c0.60059,0.27202 1.2876,0.28828 1.90137,0.04526c0.82471,-0.32637 1.40625,-1.07446 1.52051,-1.95381c0.11426,-0.8792 -0.25781,-1.75107 -0.97266,-2.27695c-0.71338,-0.52573 -1.65674,-0.62271 -2.4624,-0.25298c-0.86865,0.39844 -1.42383,1.26753 -1.42236,2.22319c0.00293,0.95566 0.56396,1.82168 1.43555,2.21528z" fill="url(#color-1)"/><path d="M181.34766,107.85879c0.19482,0.70034 0.35596,1.24233 0.30469,1.97915c-0.0249,0.46348 -0.02197,0.66401 -0.13916,1.12397c-0.52734,-0.68628 -0.44678,-1.9333 -0.14941,-2.70396z" fill="#3184ce"/><path d="M121.87104,98.1832c-4.42793,-6.58359 4.9166,-11.87563 8.25806,-6.19292l0.87715,1.52871c2.80093,-0.05933 5.68066,0.24595 8.46885,-0.05537c1.6582,-0.1793 3.40547,-1.04736 5.0959,-1.5356c12.65654,-3.65552 30.22441,0.29619 35.98857,13.28613c0.33252,0.74868 0.67969,1.83721 0.78809,2.64463l0.01611,0.39917l-0.99316,0.07515c-0.4834,0.6687 0.11133,0.55195 -0.35303,1.0002c-1.13965,1.10083 -1.53223,0.26646 -2.17822,2.01958c-2.08887,0.63311 -4.66406,2.44849 -6.60059,3.55767c-0.93896,0.53833 -1.5835,1.23809 -2.71289,1.69687l-0.1084,0.15601l-0.13477,-0.09316c-0.96387,-0.1585 -3.23584,-0.03018 -4.30811,0.00732c-0.01904,0.04614 -0.03809,0.09243 -0.05713,0.13872l-0.09961,0.22925c-1.06055,2.49316 -3.0249,3.7311 -5.66309,3.24595c-7.10156,-1.30649 -4.68018,-11.59849 2.0625,-10.12749c1.62012,0.35376 2.89746,2.08579 3.67676,3.49131c1.58496,0.28667 4.32568,0.19219 5.99414,0.14883c1.38574,-2.52568 1.74902,-4.53721 0.68408,-7.2665c-2.96045,-0.34937 -9.62402,-0.16875 -12.91113,-0.15835c-3.30176,3.4604 -6.66064,6.86382 -10.07959,10.20894c-2.18979,0.18647 -6.473,0.09888 -8.76255,0.07251c-0.58843,1.32393 -0.93193,2.2062 -2.23506,3.05083c-2.31211,1.49868 -5.71802,0.51226 -7.0897,-1.79897c-1.37256,-2.30479 -0.89355,-5.72959 1.61089,-7.06743c3.53423,-1.88774 6.02988,-0.38613 7.72969,2.91343c2.31064,0.19189 5.02515,-0.01802 7.5501,0.1478c0.96958,-0.72803 2.31431,-2.24019 3.19321,-3.15322c1.44141,-1.50996 2.9165,-2.98726 4.42383,-4.43086c-8.77383,0.27891 -17.86289,0.09082 -26.65737,0.04541c-2.36147,-0.01216 -4.74844,0.09331 -7.12896,0.09082c-0.48955,1.22153 -0.70693,1.97769 -1.81055,2.79814c-1.12427,0.83584 -2.64536,1.17275 -4.01851,0.9457c-1.39922,-0.23892 -2.63584,-1.04956 -3.41309,-2.23755c-0.98569,-1.47715 -1.04985,-2.7564 -0.73755,-4.41079c0.64131,-1.93257 2.14893,-3.09785 4.09556,-3.52295c3.07017,-0.81694 4.56489,1.16763 5.91182,3.54741c2.16973,-0.09741 5.20474,-0.02783 7.39263,0.04263c1.17539,-1.51069 2.04507,-2.6061 3.36196,-3.98086c2.72563,-2.84502 3.32563,-2.54019 6.90439,-2.60552l0.03135,0.28989c-0.59619,1.53604 -2.00273,1.43979 -3.37749,2.69385c-1.36787,1.2479 -2.42651,2.45186 -3.70811,3.76069c2.62266,-0.47314 7.74858,-0.11704 10.55947,-0.16377c1.51978,-0.02534 4.42983,-0.01992 5.88105,0.14575c-2.4709,-2.07612 -4.9582,-5.27959 -7.59492,-7.41973c-2.63569,-0.28257 -6.02153,-0.14736 -8.73252,-0.09888c-1.84219,3.9583 -5.99634,5.53726 -9.09009,1.94062zM128.08154,93.47095c-2.654,-1.90767 -5.15933,-0.73271 -4.38442,2.66338c2.12417,2.57109 5.23799,0.96416 4.38442,-2.66338zM112.90957,104.20972c-0.40371,2.99692 1.8416,4.25244 4.31221,2.43105c0.90967,-2.47236 0.18164,-3.6854 -2.47617,-3.95918c-0.85415,0.57451 -1.35879,0.64526 -1.83604,1.52812zM133.50322,112.86313c-0.86865,0.11499 -1.60679,0.6917 -1.92832,1.50674c-0.32153,0.81504 -0.17607,1.74038 0.38013,2.41743c0.5562,0.67705 1.43569,0.99932 2.29761,0.84214c1.02202,-0.18647 1.80996,-1.00605 1.95601,-2.03452c0.14619,-1.02832 -0.38218,-2.03496 -1.31177,-2.49873c-0.43081,-0.21504 -0.91626,-0.29619 -1.39365,-0.23306zM145.33286,95.13384c-0.79775,0.02798 -1.82666,0.09023 -2.60171,0.06592c1.64927,1.93213 6.5877,7.18608 8.48613,8.3874l15.37207,0.00601c0.72949,0.07441 1.45898,0.15776 2.18701,0.25005c-1.17627,-1.25566 -2.36865,-2.57256 -3.74854,-3.59868c-4.3125,-3.20933 -10.2876,-4.96626 -15.6123,-5.13721c-1.36084,-0.03208 -2.72168,-0.02314 -4.08267,0.02651zM158.5752,112.85024c-1.33008,0.20435 -2.24268,1.44668 -2.04053,2.77646c0.20215,1.32993 1.44287,2.24487 2.77295,2.04492c0.96973,-0.14575 1.75635,-0.85737 1.99951,-1.80674c0.24316,-0.94937 -0.10547,-1.9519 -0.88623,-2.54531c-0.52588,-0.40049 -1.19238,-0.56982 -1.8457,-0.46934z" fill="url(#color-2)"/><path d="M121.87104,98.1832c-4.42793,-6.58359 4.9166,-11.87563 8.25806,-6.19292c-0.23701,1.09526 -0.82852,2.03701 -2.04756,1.48066c-2.654,-1.90767 -5.15933,-0.73271 -4.38442,2.66338l-0.16743,0.50288c-1.08999,0.30806 -1.02173,0.91655 -1.65864,1.546z" fill="#22cbf6"/><path d="M110.23594,103.55405c0.64131,-1.93257 2.14893,-3.09785 4.09556,-3.52295c0.61377,0.77827 1.33579,0.57041 1.8356,1.74199c-0.13608,0.8606 -0.74165,0.37646 -1.42148,0.9085c-0.85415,0.57451 -1.35879,0.64526 -1.83604,1.52812l-0.46099,-0.24287c-0.55693,0.02988 -0.68511,-0.00571 -1.13101,0.33706c-0.16509,0.323 -0.21445,0.53232 -0.55195,0.70313l0.10254,0.12319l-0.05405,-0.0189c-0.27671,-0.57642 -0.38306,-0.94219 -0.57817,-1.55728z" fill="#22cbf6"/><path d="M125.72637,107.46753c0.83906,-0.1084 1.93022,-0.10107 2.8002,-0.11997c-2.26187,5.95444 -2.56406,10.40347 -1.44653,16.75972c1.92788,-0.27305 7.45737,-0.15205 9.57319,-0.13945c4.95396,0.0293 10.09775,-0.104 15.03135,0.00542c-0.32373,0.23804 -0.37354,0.27026 -0.77637,0.28315l-0.0542,0.14883c0.71045,0.53115 0.69141,0.15981 1.08691,0.30791c0.46436,0.17432 2.10205,1.68369 2.50635,1.77085c0.61816,0.13286 1.01074,-0.26133 1.78857,0.35083c-2.07422,0.06299 -4.90137,-0.20317 -6.9082,0.10386c-0.88916,0.13623 -2.74951,2.65225 -3.47168,3.38379c-0.78779,0.79775 -1.83018,1.66846 -2.62104,2.47207c-1.58174,1.60752 -2.24136,2.82715 -4.20161,4.04326l-0.15645,0.09565c-4.19868,0.08848 -8.53403,-0.10107 -12.85708,0.05625c-0.77534,1.42632 -1.00459,2.26274 -2.61636,3.12744c-1.22373,0.6687 -2.66968,0.80098 -3.99434,0.36533c-1.36948,-0.45747 -2.49229,-1.45488 -3.10781,-2.76094c-0.58711,-1.25669 -0.68423,-2.70659 -0.14912,-3.99844c0.55474,-1.30547 1.6106,-2.33335 2.93057,-2.85278c2.82144,-1.08618 5.64331,0.29678 6.67354,3.11045c1.30474,0.18486 1.94473,0.21753 3.26909,0.22324c-0.71411,-1.08545 -3.94717,-5.46313 -2.9811,-6.4853c0.78428,-0.16963 1.49619,-0.03794 2.30259,0.04146c0.99053,2.06455 2.37378,4.92964 4.1748,6.37939c1.71606,-0.02915 3.43257,-0.01128 5.14761,0.05361c1.08179,-0.74502 6.5748,-6.30322 7.50791,-7.51597c-2.38374,0.29985 -6.7752,0.18735 -9.36738,0.18823l-17.0269,0.00059c-1.08721,2.54033 -3.10474,4.18022 -6.00732,3.6936c-1.27617,-0.2061 -2.41406,-0.92109 -3.15366,-1.98135c-0.87744,-1.24292 -1.1814,-2.89746 -0.8562,-4.37886c0.28813,-1.3749 1.13555,-2.56772 2.33906,-3.29238c3.48794,-2.07378 6.11807,0.10313 7.73481,3.14736c1.06978,-0.15103 4.23442,-0.03223 5.46797,-0.0104c-0.10635,-0.92183 -0.27319,-1.84907 -0.39756,-2.77339c-0.57393,-4.26621 -0.39624,-9.9668 1.81641,-13.80308zM114.04131,127.85186c1.3374,-0.17036 2.28809,-1.38618 2.13105,-2.7252c-0.15703,-1.33901 -1.36333,-2.30171 -2.70381,-2.15786c-1.35952,0.14575 -2.33877,1.37271 -2.17954,2.73076c0.15938,1.35791 1.396,2.325 2.75229,2.15229zM121.30283,138.05435c0.82515,-0.20024 1.39658,-0.5417 1.83428,-1.30869c0.33237,-0.58579 0.40107,-1.28511 0.18911,-1.92451c-0.38115,-1.13481 -1.27515,-1.50586 -2.38418,-1.64561c-2.39648,0.71499 -3.51577,2.77559 -1.12046,4.61924c0.20698,0.15938 1.14946,0.22954 1.48125,0.25957z" fill="url(#color-3)"/><path d="M92.29644,178.47656c3.23525,-0.09814 6.84448,-0.0293 10.09717,0.01758l-0.11162,2.87256c-3.33179,0.08496 -6.66489,0.11426 -9.99771,0.08936c0.40825,1.93799 0.12319,1.99512 -0.1415,3.93604c2.82539,-0.02344 6.05215,0.08496 8.91504,0.11865c1.27295,0.94336 1.73174,1.62305 1.81099,3.30029c0.1207,2.55469 0.53115,6.20947 -2.95913,6.47314c-3.39419,0.01465 -6.78823,0.00439 -10.18228,-0.02783c-0.04702,-0.81445 0.00425,-2.06689 0.01421,-2.91357c3.27407,-0.11279 7.00283,-0.04395 10.30737,-0.04687c-0.04248,-1.30811 -0.02373,-2.7085 -0.02959,-4.02539c-1.81084,0.02637 -3.6334,0.05566 -5.44351,0.05127c-2.54004,-0.00732 -3.97881,0.20508 -5.34434,-2.16943c-0.05054,-2.38184 -0.38716,-4.72412 0.68628,-6.80713c0.97104,-0.5918 1.24834,-0.72656 2.37861,-0.86865z" fill="#3b41a7"/><path d="M125.42959,178.45166c3.56499,-0.13184 7.9856,-0.02783 11.54297,0.23438c1.47979,0.1084 1.93945,2.95166 1.93828,4.15869c-0.00366,3.54199 0.6208,6.9624 -4.09849,6.5874c0.57773,0.73975 3.75513,5.07568 3.62007,5.75684c-0.75439,0.16406 -2.27476,0.08203 -3.11382,0.06738c-1.19268,-1.771 -2.68872,-3.89648 -3.96416,-5.60449c-0.52896,-0.13916 -2.50063,-0.19336 -3.16084,-0.22412c-0.07383,1.90137 -0.04746,3.98877 -0.0583,5.90479c-0.9145,-0.0542 -1.82871,-0.05273 -2.74497,-0.06152c-0.19819,-1.59082 -0.16201,-7.15576 -0.01919,-8.76855c3.55107,-0.02051 7.14932,0.01904 10.70244,0.04688c0.00073,-1.79004 -0.02373,-3.27832 -0.13755,-5.06396c-2.98213,-0.0249 -5.94609,-0.02783 -8.92822,0.00586c-0.34482,0.00439 -1.3229,-0.03516 -1.51436,-0.2959c-0.38071,-0.52002 -0.12905,-2.06982 -0.06387,-2.74365z" fill="#3b41a7"/><path d="M197.12988,178.44873c2.14014,-0.12598 4.95557,0.20508 5.04785,2.82422c0.16113,4.57471 0.15234,9.52441 -0.01904,14.08301l-2.83154,-0.08936c-0.21826,-1.93506 0.15527,-13.04004 -0.29004,-13.86768c-0.43652,-0.04541 -1.71533,0.11572 -1.93799,0.47461c-1.18945,1.91309 -2.09473,4.00488 -3.18018,5.99414c-0.84229,1.46045 -1.53076,2.93994 -2.4668,4.34766c1.9541,0.15088 4.24658,0.09961 6.20801,0.07031c-0.03809,0.97998 -0.03809,2.01563 -0.0542,3.00146c-2.69678,-0.03516 -5.45068,-0.00879 -8.15332,-0.01465c-0.59766,-0.43799 -1.78711,-1.34912 -1.39014,-2.25879c1.79004,-4.1001 4.10303,-8.01416 6.14648,-11.99707c0.84668,-1.65088 1.15283,-2.05371 2.9209,-2.56787z" fill="#3b41a7"/><path d="M152.85498,178.46924c1.06201,-0.01758 3.10986,-0.01465 3.76904,0.87744c1.25977,1.70947 0.84521,5.74365 0.82178,7.78711c-0.02344,2.71729 -0.00439,5.43457 0.05859,8.15186c-0.76318,0.07324 -1.97314,0.13916 -2.69531,-0.09961c-0.42334,-0.64893 -0.25342,-12.27979 -0.25049,-13.7417l-1.82373,-0.08936c-1.10596,1.70361 -2.58984,4.93359 -3.72803,6.96094c-0.72217,1.30371 -1.42236,2.61914 -2.10205,3.94482c1.51758,0.11279 4.25244,0.03223 5.90625,0.05859c0.08643,1.22021 0.05273,1.71533 -0.06299,2.94287c-1.90283,-0.07617 -6.62051,0.40869 -8.39312,-0.31641c-0.93867,-0.38379 -1.03945,-1.89697 -0.51812,-2.92822c2.06499,-4.08691 4.24424,-8.29834 6.42246,-12.33691c0.43799,-0.81152 1.80176,-1.11475 2.5957,-1.21143z" fill="#3b41a7"/><path d="M109.03066,178.48535c3.75366,0.07031 7.57148,-0.18018 11.30977,0.0791c1.0585,0.07324 0.87686,1.97314 0.54917,2.67041c-0.85371,0.44092 -4.32129,0.31055 -5.33555,0.14063l-0.13843,9.94043c0.02432,1.30957 0.05742,2.61914 0.09917,3.92871c-1.20308,0.16113 -1.80571,0.104 -2.98301,-0.00439c-0.1834,-4.35937 0.27334,-9.54639 -0.07632,-13.75928c-1.24233,0.01172 -2.55908,0.13916 -3.78311,0.0835c-2.00742,-0.08936 -1.62979,-1.70215 -1.45825,-2.98535c0.55664,-0.05127 1.24687,-0.06592 1.81655,-0.09375z" fill="#3b41a7"/><path d="M162.44238,178.46924c2.96924,0.03662 5.95898,-0.05566 8.92529,-0.0293c1.21143,0.01025 2.98828,-0.09375 4.10449,0.11572c0.47168,0.52295 0.30615,2.09912 0.28711,2.86377c-1.77393,0.14502 -3.52148,0.06885 -5.28662,-0.13184c-0.21533,2.40381 -0.09668,6.37793 -0.09521,8.88574c0.00586,1.73877 0.02197,3.45117 -0.04687,5.18994c-0.86719,0.02783 -1.80762,-0.03809 -2.6792,-0.07764c-0.10693,-4.604 0.03076,-9.18457 -0.08057,-13.80029c-1.74609,-0.04687 -3.46436,0.01318 -5.24268,-0.05566c-0.04248,-0.76611 -0.17432,-2.30273 0.11426,-2.96045z" fill="#3b41a7"/><path d="M208.14111,178.4707c1.11621,-0.04834 1.59375,-0.04541 2.70117,0.06738c0.11719,1.58789 0.21387,16.31543 -0.08789,16.79297c-0.79834,0.02637 -1.9248,-0.0498 -2.75098,-0.0835c-0.00586,-2.05957 -0.22559,-15.8335 0.1377,-16.77686z" fill="#3b41a7"/><path d="M110.49536,197.66895c4.43555,-0.1084 3.07749,1.23633 3.12041,5.02148c0.02344,2.06689 -3.93545,1.90869 -5.22891,1.62451c-0.35786,-0.39551 -0.24185,-0.35449 -0.30527,-1.021c0.22603,-0.38818 0.65859,-0.94336 0.93472,-1.32275c0.35698,0.3457 0.76157,0.81006 1.10552,1.18213c1.06421,-0.02197 1.6147,0.08789 2.44907,-0.58301l0.00088,-0.23437c-0.70635,-0.53906 -2.9499,-0.56396 -3.95757,-0.646c0.20361,-1.39453 0.13213,-2.46533 0.69873,-3.72363c0.47842,-0.36035 0.46436,-0.2417 1.18242,-0.29736zM112.20469,200.52686c0.1749,-0.50244 0.3271,-0.75732 0.19688,-1.26709c-0.52148,-0.44385 -1.12061,-0.34863 -1.8561,-0.36035c-0.19336,0.52441 -0.39111,0.85107 -0.25562,1.37842c0.55005,0.46143 1.15254,0.30322 1.91484,0.24902z" fill-opacity="0.98824" fill="#3b41a7"/><path d="M160.68457,197.67041c2.63525,0.03223 3.10254,0.41162 2.6543,3.18604c-0.16553,1.02686 -0.48193,3.36914 -1.57031,3.71338c-0.52002,-0.71191 -0.18896,-1.89551 -0.05273,-2.72168c-0.71777,0.00439 -1.46777,-0.0498 -2.18701,-0.08643c-0.09375,-0.1626 -0.15234,-0.52148 -0.19775,-0.72363c-0.54785,0.95801 -0.11719,2.55762 -1.00195,3.39697c-0.51562,0.10254 -0.25635,0.11719 -0.79541,-0.13916c-0.1875,-1.40332 0.28564,-4.81787 1.2583,-5.92676c0.5625,-0.64014 1.10303,-0.63721 1.89258,-0.69873zM160.82227,200.51221c0.79395,0.06738 1.43701,0.23291 1.34326,-0.86426c-0.68848,-0.94043 -0.96387,-0.73535 -2.05957,-0.67822l-0.41455,0.14502c-0.26953,0.5918 -0.31201,0.74121 -0.47021,1.37695l0.10547,0.27393c0.52148,0.04834 0.75293,-0.26807 1.49561,-0.25342z" fill-opacity="0.98824" fill="#3b41a7"/><path d="M101.33481,197.65869c1.61191,-0.14355 5.54531,-0.36621 4.14126,2.58984c-0.63208,1.33008 -0.06211,2.47412 -0.61274,3.8042c-0.1623,0.39111 -0.58008,0.41162 -0.95581,0.51855c-0.09287,-0.09082 -0.22778,-0.27393 -0.31333,-0.38232c-0.06738,-0.77051 0.13521,-1.42529 0.30249,-2.18555c-1.26431,-0.19336 -2.67861,-0.21387 -3.95449,-0.20068c0.15278,-1.16748 0.16143,-2.52246 0.49336,-3.646c0.10884,-0.36914 0.52104,-0.38965 0.89927,-0.49805zM104.19888,200.38623l0.0457,-1.34912l-2.51851,-0.02051c-0.16216,0.72363 -0.27832,0.68408 -0.06094,1.25244c0.66255,0.47607 1.68721,0.21533 2.53374,0.11719z" fill-opacity="0.98824" fill="#3b41a7"/><path d="M151.94531,197.79199c0.71631,-0.08789 1.64941,-0.0835 2.28809,-0.14648c3.03076,-0.29736 3.03369,1.09131 2.49756,3.5918c-0.24316,1.13525 -0.00732,1.99658 -0.60791,3.28125c-0.41748,-0.01318 -0.62842,0.03076 -0.94629,-0.23145c-0.30762,-0.64014 -0.01318,-1.59375 0.12305,-2.34229c-1.30957,-0.12305 -2.56787,-0.13916 -3.87891,-0.16992c0.1582,-1.33008 0.33252,-2.65869 0.52441,-3.98291zM152.9707,200.54443c0.80713,-0.00439 1.66846,-0.02637 2.46826,0.01318c0.19482,-0.74707 0.31055,-0.70312 0.12891,-1.33301c-0.3999,-0.3208 -1.57178,-0.3208 -2.27783,-0.44385c-0.11572,0.56836 -0.26367,1.19238 -0.31934,1.76367z" fill-opacity="0.98824" fill="#3b41a7"/><path d="M76.17671,197.65576c2.88032,-0.00879 4.56138,-0.54785 3.84155,3.34424c-0.59502,3.21826 -1.51201,3.58008 -4.66172,3.47021c-1.54248,-0.05273 -1.84526,-1.1001 -0.78062,-2.1709c0.51548,-0.02783 0.29927,-0.09814 0.6895,0.13916c0.65654,0.84229 1.97446,1.07373 2.75962,0.30908c0.59019,-0.57568 0.55283,-2.76562 0.61992,-3.65039c-0.89355,-0.02344 -1.45869,-0.02344 -2.34976,-0.18896c-0.22559,0.90967 -0.23525,2.5415 -1.23311,2.88428c-0.88154,-0.68555 -0.38569,-2.86377 -0.11719,-3.7749c0.44604,-0.36768 0.54844,-0.26514 1.23179,-0.36182z" fill-opacity="0.98824" fill="#3b41a7"/><path d="M191.96924,200.50928c0.15674,-0.60352 0.18896,-1.35937 0.30469,-2.00391c0.15381,-0.8584 1.12354,-0.94775 1.57031,-0.41895c-0.14941,0.73535 -0.5625,2.62354 -0.60352,3.32373c-0.07617,1.32275 -0.03809,1.50439 -0.30615,2.88574c-0.50684,0.21973 -0.75586,0.29004 -1.18506,-0.03662c-0.17139,-0.59033 0.03369,-1.67285 0.09668,-2.38037c-0.8833,-0.07031 -1.54541,-0.02637 -2.42871,0.01611c-0.17725,0.72217 -0.2666,3.47461 -1.71533,2.29688c-0.05127,-1.16016 0.61963,-2.97949 0.77051,-4.12793c0.09521,-0.7251 0.12744,-1.52783 0.2168,-2.29687c0.17871,-0.01318 0.35742,-0.0249 0.5376,-0.03369c0.58594,-0.02344 0.57861,-0.00586 0.9082,0.29883c0.15674,0.53613 -0.24023,1.85303 -0.36621,2.51221c0.70459,0.01025 1.48975,-0.02197 2.2002,-0.03516z" fill-opacity="0.98824" fill="#3b41a7"/><path d="M89.00771,197.79053c0.94746,-0.10986 3.24814,-0.37646 3.77388,0.46729c-0.58213,0.95508 -2.77061,0.26807 -3.8978,1.27441c-0.20508,0.49805 -0.17373,0.2417 -0.0561,0.7998c0.51694,0.3208 1.80483,0.22852 2.52993,0.24316c0.43228,0.31641 0.84785,0.75732 1.23369,1.13818c-0.30747,1.5 -0.41792,1.93652 -1.7978,2.67773c-0.95273,0.09961 -2.94009,0.18018 -3.76992,-0.29297l-0.0646,-0.25928c0.77461,-1.08984 3.74502,-0.39697 4.13965,-1.46338c-1.00708,-1.39893 -4.60063,0.48779 -3.38965,-3.30322c0.25298,-0.79102 0.61128,-0.9082 1.29873,-1.28174z" fill-opacity="0.98431" fill="#3b41a7"/><path d="M96.14121,197.65283c0.79351,-0.01025 2.27842,-0.04541 2.87505,0.54492c0.39243,0.38818 0.40708,1.25537 -0.1459,1.5791c-1.3333,-0.5332 -1.6563,-0.7998 -3.13198,-0.73389l-0.26558,0.01318c-0.2729,1.2041 -1.15811,3.53174 0.18779,4.22314c0.91641,-0.00146 1.40596,-0.35156 2.10249,-0.9126c0.38745,-0.09814 0.62461,-0.17139 0.94424,0.03662l0.05156,0.36328c-0.64307,1.94092 -3.15439,1.91455 -4.76338,1.35791c-1.16997,-1.11328 -0.27041,-4.3374 0.4415,-5.54736c0.38174,-0.65039 1.01587,-0.78955 1.7042,-0.92432z" fill-opacity="0.98824" fill="#3b41a7"/><path d="M203.5708,197.65723c1.16895,0.01758 2.94434,0 2.87695,1.63477c-0.36035,0.46143 -0.13623,0.31787 -0.68408,0.46729c-0.58008,-0.12305 -0.65039,-0.27539 -1.08691,-0.72656c-0.67969,0.02051 -1.41943,-0.00146 -2.10498,-0.00879c-0.20361,1.37695 -0.45264,2.61475 -0.72949,3.97119c1.58057,0.22852 1.92773,0.33984 3.17139,-0.69287c0.45117,-0.10254 0.4248,-0.1084 0.88037,-0.04541l0.16846,0.25049c-0.12744,0.84521 -0.75732,1.30518 -1.38428,1.81201c-0.78516,0.04541 -2.85645,0.20215 -3.38232,-0.18164c-1.34033,-0.97705 -0.41602,-4.64795 0.4585,-5.73633c0.50098,-0.62256 1.16016,-0.65479 1.81641,-0.74414z" fill-opacity="0.98431" fill="#3b41a7"/><path d="M127.90459,197.77002c0.99536,-0.11426 3.47432,-0.35889 4.11548,0.53467l-0.14648,0.2417c-1.14683,0.61963 -2.64814,0.41602 -3.96548,0.36328c-0.3895,1.18213 -0.64907,2.9502 -0.86821,4.21875c1.5813,0.05127 1.80718,0.19189 3.10957,-0.6665c0.24844,-0.19629 0.55195,-0.33105 0.85752,-0.271l0.09902,0.32227c-0.29854,1.03125 -0.44268,1.09717 -1.28203,1.78857c-4.7584,0.6665 -4.5416,-1.05469 -3.40137,-5.10059c0.24302,-0.86133 0.68877,-1.09717 1.48198,-1.43115z" fill-opacity="0.98824" fill="#3b41a7"/><path d="M141.23965,197.6543c2.25615,-0.05566 3.51475,0.02344 2.9937,2.70703c-0.21943,1.12939 -0.16846,3.71484 -1.36494,4.22461l-0.31494,-0.14355c-0.4856,-0.68701 0.02212,-2.60303 0.18735,-3.57422c0.07983,-0.34131 0.19292,-1.42529 0.24639,-1.82666c-0.40854,-0.01025 -2.02017,-0.08203 -2.24854,0.08203c-0.97222,0.69434 -0.05229,2.44629 -1.49561,2.84326c-1.11973,-0.44824 -0.17739,-2.68359 0.16113,-3.55811c0.80361,-0.49365 0.90044,-0.56836 1.83545,-0.75439z" fill-opacity="0.98824" fill="#3b41a7"/><path d="M146.71143,197.6792c0.77783,0.03223 3.8291,-0.14648 4.17627,0.04541c0.20361,0.4585 0.22119,0.4292 0.17285,0.91992c-0.80566,0.79688 -2.51367,-0.06592 -3.58887,0.25781c-0.69873,0.21094 -1.10405,0.83789 -0.78076,1.51318c0.52881,0.2417 1.2334,0.13184 1.83691,0.10254c0.8042,0.00879 1.43555,-0.03076 1.67578,0.84521c-0.1377,0.22705 -0.16406,0.20508 -0.38232,0.38672c-1.05615,0.19043 -3.73726,0.11865 -4.8249,-0.06885c0.16567,-1.07227 0.12363,-2.69678 0.56851,-3.62402c0.1752,-0.36328 0.72026,-0.32812 1.14653,-0.37793z" fill-opacity="0.98824" fill="#3b41a7"/><path d="M82.3481,197.65576c0.89355,0.00439 3.95127,-0.06299 4.57764,0.2666c0.13755,0.46436 0.14458,0.2373 -0.04922,0.70459c-1.15269,0.78223 -2.9124,0.08496 -4.20029,0.50098c-0.21885,0.4541 -0.17358,0.75146 -0.1752,1.25537c0.41147,0.27539 0.47358,0.1582 1.10493,0.12451c0.95947,0.01172 1.59082,-0.25049 2.20225,0.62549c-0.13096,1.03711 -3.93955,0.78516 -4.7061,0.54346c-0.33193,-0.75146 -0.00161,-3.04248 0.44268,-3.78516c0.09463,-0.1582 0.60894,-0.19922 0.80332,-0.23584z" fill-opacity="0.98824" fill="#3b41a7"/><path d="M220.73438,197.63965c1.03857,-0.08936 4.34033,-0.01025 5.24561,0.32227c0.12158,0.41895 0.11572,0.20654 -0.03662,0.65625c-0.76611,0.62842 -2.57227,0.2915 -3.7998,0.40576c-0.5083,0.37061 -0.55225,1.00195 -0.2124,1.51025l0.39551,0.00732c0.83936,-0.0293 1.59814,-0.10693 2.41406,0.07031l0.15967,0.26074c-0.30762,1.4458 -4.37695,1.19678 -4.75195,0.61377c-0.03369,-0.8291 0.22559,-3.11426 0.58594,-3.84668z" fill-opacity="0.98824" fill="#3b41a7"/><path d="M172.11621,197.67773c1.12646,-0.10986 3.38232,-0.0498 4.51904,0.12158c0.30762,0.43213 0.22266,0.19922 0.2666,0.7251c-1.08545,1.02979 -3.375,-0.15088 -4.51465,0.95947c-0.09375,0.4541 -0.0249,0.49512 0.1626,0.91846c0.36475,0.24902 0.88477,0.15527 1.3623,0.14209c0.59766,-0.00879 1.26416,-0.12305 1.6582,0.22412c-0.02051,0.37061 0.01318,0.59326 -0.17578,0.90381c-1.33008,0.21826 -3.2959,0.16699 -4.65674,0.11279c0.12305,-1.08838 0.24316,-2.6001 0.58154,-3.646c0.12744,-0.39111 0.40869,-0.36475 0.79688,-0.46143z" fill-opacity="0.98824" fill="#3b41a7"/><path d="M116.67246,197.66748c1.17993,0.01465 2.38242,0.02344 3.56104,0.05859c0.71528,0.02197 0.61523,0.03662 0.98027,0.45117c-0.00103,1.30811 -3.47417,0.17432 -4.60254,1.34766c-0.11689,0.5332 -0.10898,0.25635 0.11367,0.8584c0.40386,0.22412 0.80962,0.12451 1.33198,0.10986c0.56411,-0.0249 1.12896,-0.10547 1.64048,0.104c0.21724,0.44678 0.13857,0.35449 0.08247,0.93311c-0.70137,0.52295 -3.7229,0.27832 -4.73452,0.24463c0.13608,-1.03711 0.20054,-2.73633 0.58784,-3.68701c0.16084,-0.39404 0.61362,-0.35889 1.03931,-0.42041z" fill-opacity="0.98824" fill="#3b41a7"/><path d="M183.33838,197.66748c1.06201,0.00732 3.11719,-0.04395 4.0752,0.15967c0.39844,0.3457 0.28564,0.14063 0.41162,0.59619c-0.86279,0.91553 -3.6958,0.00439 -4.71533,1.12793c-0.04102,0.52734 -0.08789,0.27539 0.20508,0.76758c0.52148,0.31787 1.09277,0.2373 1.73145,0.24023c0.76025,-0.01611 0.95654,-0.14209 1.41943,0.47461c0.02051,0.43359 0.09375,0.28418 -0.0835,0.58301c-0.7749,0.39697 -3.90674,0.21533 -4.84863,0.10547c0.22998,-1.20264 0.2168,-2.54883 0.68994,-3.6665c0.15967,-0.37793 0.74121,-0.33984 1.11475,-0.38818z" fill-opacity="0.98824" fill="#3b41a7"/><path d="M194.8418,197.79346c1.40186,-0.11426 4.19824,-0.41895 5.47266,0.16553l0.15674,0.2168c-0.63721,1.96143 -5.17383,-0.58008 -4.48242,2.14893c0.97119,0.8042 4.05029,-0.66943 3.0293,1.17334c-1.0459,0.75586 -2.13428,-0.03076 -3.46143,0.375c-0.15967,0.03809 -1.00488,-0.16846 -1.25684,-0.20654c0.27246,-1.08545 0.48633,-2.74951 0.54199,-3.87305z" fill-opacity="0.98824" fill="#3b41a7"/><path d="M133.86738,197.67041c1.24673,-0.00439 3.45176,-0.15527 4.47671,0.50244l-0.04336,0.32959c-1.27896,0.60205 -2.82305,0.44385 -4.24072,0.41016c-0.09141,0.59619 -0.38599,0.97998 -0.21445,1.45459c0.3728,0.26807 1.00649,0.19189 1.50352,0.19043c0.85371,-0.0498 1.57061,-0.24609 1.80615,0.73975c-0.38437,0.83057 -4.00869,0.5083 -4.94883,0.44678c0.12319,-0.94482 0.23262,-3.14502 0.75073,-3.86133c0.1248,-0.17285 0.63384,-0.17578 0.91025,-0.2124z" fill-opacity="0.98824" fill="#3b41a7"/><path d="M211.64502,197.76416c0.59619,-0.04687 0.68994,-0.0498 1.27734,0.03223c0.43359,0.52881 -0.31201,3.36914 -0.4541,4.18213c-0.52002,2.97949 -2.43311,2.56201 -4.80469,2.28223c-0.45264,-0.49365 -0.95068,-1.16309 -0.69287,-1.86768c1.19824,-0.52881 3.86572,3.03662 4.26123,-1.36377c0.08203,-0.92285 0.29443,-2.29834 0.41309,-3.26514z" fill-opacity="0.98824" fill="#3b41a7"/><path d="M106.84497,197.77441c0.5647,-0.0249 1.06055,-0.10986 1.5583,0.14209c0.07002,0.15967 -1.01147,5.60889 -1.12383,6.24316l-0.34014,0.25635c-0.53115,0.05859 -0.3019,0.12305 -0.7188,-0.17139c-0.2918,-0.89502 0.46597,-5.10791 0.62446,-6.47021z" fill="#3b41a7"/><path d="M214.81494,197.66602c1.07373,-0.02783 4.58496,-0.35156 5.09473,0.57568c-0.15674,0.44678 -0.38672,0.54932 -0.77197,0.83203c-0.96973,-0.00732 -5.28809,0.26807 -5.28223,-0.84814c0.43213,-0.49805 0.25635,-0.33984 0.95947,-0.55957z" fill-opacity="0.98431" fill="#3b41a7"/><path d="M144.7481,202.28613c1.04048,-0.04834 1.09907,0.03662 1.78315,0.81299c1.22461,0.08057 2.71143,-0.26074 3.49365,0.22559c0.17578,0.51123 0.09814,0.40723 -0.06445,1.03857l-0.85254,0.04688c-1.88232,0.09521 -4.4354,0.51563 -4.35981,-2.12402z" fill-opacity="0.98431" fill="#3b41a7"/><path d="M80.76621,202.19092c0.86865,0.07617 1.1499,0.39404 1.85625,0.90527c1.21655,0.08643 2.22832,-0.21094 3.14692,0.24023c0.22632,0.48047 0.12451,0.42334 0.00088,1.0752c-1.16147,0.09961 -3.91846,0.28125 -4.75972,-0.63574c-0.41323,-0.44971 -0.31392,-1.03125 -0.24434,-1.58496z" fill-opacity="0.98431" fill="#3b41a7"/><path d="M165.854,197.66455c1.24219,-0.02197 3.22852,-0.17871 4.31543,0.26221c0.29883,0.4043 0.23584,0.18164 0.18311,0.68848c-0.34424,0.39551 -0.29443,0.26807 -0.98877,0.35596c-1.1001,-0.03369 -4.41797,0.36475 -4.91455,-0.57275l0.15234,-0.36475c0.375,-0.33105 0.74268,-0.30615 1.25244,-0.36914z" fill-opacity="0.98431" fill="#3b41a7"/><path d="M170.79346,202.10596c0.83936,0.26514 0.94629,0.4043 1.54541,1.03125c1.18652,0.0249 2.2207,-0.28125 3.20508,0.15674c0.31641,0.45557 0.20361,0.37354 0.1626,1.07959c-1.7666,0.21826 -5.84326,0.65039 -4.91309,-2.26758z" fill-opacity="0.98431" fill="#3b41a7"/><path d="M181.53809,202.19238c0.23584,0.0293 0.44678,0.06152 0.64893,0.19922c1.64063,1.12354 2.86523,0.60205 4.35352,0.81152c0.18164,0.39111 0.06445,0.77051 0.00146,1.21729c-1.23633,0.0293 -3.92871,0.32227 -4.74609,-0.56689c-0.44678,-0.48633 -0.31934,-1.06055 -0.25781,-1.66113z" fill-opacity="0.98431" fill="#3b41a7"/><path d="M219.95947,202.18359c0.91992,0.16846 1.21582,0.4585 2.00391,0.97119c1.02686,-0.00586 2.45508,-0.21973 3.17578,0.38672c0.05859,0.51123 0.09521,0.26221 -0.18164,0.75586c-1.98486,0.24609 -5.45361,0.87598 -4.99805,-2.11377z" fill-opacity="0.98824" fill="#3b41a7"/><path d="M217.08105,199.45605l0.13916,0.12598c-0.08936,1.3623 -0.12598,3.23877 -0.71484,4.5c-0.19922,0.4292 -0.55811,0.39404 -1.021,0.48193c-0.5625,-0.72217 0.15234,-3.89502 0.41895,-4.83398c0.36328,-0.31494 0.58154,-0.21973 1.17773,-0.27393z" fill-opacity="0.98824" fill="#3b41a7"/><path d="M115.17861,202.07666c0.11133,0.06006 0.36445,0.18018 0.43184,0.27979c0.94731,1.40039 3.74897,0.1875 4.5186,1.16602c0.01113,0.44385 -0.10986,0.52734 -0.35889,0.90674c-1.85449,0.02783 -5.79053,0.62109 -4.59155,-2.35254z" fill-opacity="0.98431" fill="#3b41a7"/><path d="M131.95239,202.25977c1.16821,0.12012 1.87529,0.86279 3.14824,0.90967c0.70195,0.02637 1.46162,-0.09814 2.11069,0.04834c0.12803,0.38818 -0.01934,0.78076 -0.11191,1.19971c-2.2043,0.06006 -4.96128,0.71924 -5.14702,-2.15771z" fill-opacity="0.98431" fill="#3b41a7"/><path d="M194.33936,202.02979c0.39404,0.23438 0.77051,0.47314 1.18799,0.66504c1.15137,1.00635 2.89893,0.01758 3.79102,0.68262c0.03369,0.44824 0.09668,0.56982 -0.1333,0.94336c-1.25977,0.42627 -3.69727,0.38672 -4.69336,-0.67383c-0.42334,-0.44971 -0.25781,-1.07373 -0.15234,-1.61719z" fill-opacity="0.98431" fill="#3b41a7"/><path d="M166.6626,199.25098c0.50244,0.15381 0.81152,0.07178 1.16895,0.40137c-0.02637,1.10742 -0.4292,3.64014 -0.69727,4.72412c-0.48047,0.09229 -0.56104,0.07764 -1.03711,0.06885l-0.14355,-0.16406c-0.15527,-1.12939 0.46582,-3.7998 0.70898,-5.03027z" fill="#3b41a7"/><path d="M207.69287,197.76855c0.66211,-0.02344 0.75732,-0.14209 1.22461,0.1377c0.48926,1.06641 -0.20508,2.84326 -0.56104,3.98145c-0.51123,-0.0293 -0.72803,0.00293 -1.17187,-0.25635c-0.05713,-0.74121 0.30469,-3.14209 0.5083,-3.86279z" fill-opacity="0.98431" fill="#3b41a7"/><path d="M128.59849,200.60449c0.85078,-0.03662 2.15552,-0.31787 2.77603,0.14648c0.14722,0.53027 0.05508,0.44092 -0.21328,1.09277c-0.9249,-0.1084 -1.83955,0.12891 -2.5437,-0.21094c-0.20815,-0.5083 -0.13022,-0.38965 -0.01904,-1.02832z" fill-opacity="0.98039" fill="#3b41a7"/><path d="M138.8751,202.03564c0.35713,0.08936 0.39097,0.12598 0.71895,0.30469c0.40679,0.81885 0.23042,1.55566 -0.32974,2.24121c-0.34043,-0.05127 -0.40063,-0.0835 -0.72686,-0.20508c-0.59136,-0.79248 -0.14136,-1.60693 0.33765,-2.34082z" fill-opacity="0.98431" fill="#3b41a7"/><path d="M99.96665,202.18652c0.29019,0.03223 0.5127,0.06738 0.79966,0.11279c0.59663,0.67822 0.40151,1.46631 -0.05317,2.1665c-0.63428,-0.00293 -0.80288,0.0498 -1.12104,-0.47021c-0.075,-0.62549 0.17856,-1.18945 0.37456,-1.80908z" fill-opacity="0.98431" fill="#3b41a7"/><path d="M151.67578,202.22168l0.59473,0.06152c0.61816,0.65186 0.24756,1.46191 -0.16406,2.146c-0.41602,0.02197 -0.4248,0.02783 -0.8291,-0.05273c-0.63135,-0.77344 -0.14355,-1.46924 0.39844,-2.15479z" fill-opacity="0.98824" fill="#3b41a7"/><path d="M194.2998,201.6665c0.25195,0.03809 1.09717,0.24463 1.25684,0.20654c0.09668,0.60791 0.18457,0.40576 -0.0293,0.82178c-0.41748,-0.19189 -0.79395,-0.43066 -1.18799,-0.66504z" fill-opacity="0.04706" fill="#3b41a7"/></g></svg></svg>